<svg width="240" height="240" viewBox="0 0 240 240" fill="none" xmlns="http://www.w3.org/2000/svg">
<path fill-rule="evenodd" clip-rule="evenodd" d="M212 45C216.418 45 220 41.4183 220 37C220 32.5817 216.418 29 212 29C207.582 29 204 32.5817 204 37C204 41.4183 207.582 45 212 45ZM212 57C223.046 57 232 48.0457 232 37C232 25.9543 223.046 17 212 17C200.954 17 192 25.9543 192 37C192 48.0457 200.954 57 212 57Z" fill="#89969F"/>
<path fill-rule="evenodd" clip-rule="evenodd" d="M137 88C141.418 88 145 84.4183 145 80C145 75.5817 141.418 72 137 72C132.582 72 129 75.5817 129 80C129 84.4183 132.582 88 137 88ZM137 100C148.046 100 157 91.0457 157 80C157 68.9543 148.046 60 137 60C125.954 60 117 68.9543 117 80C117 91.0457 125.954 100 137 100Z" fill="#89969F"/>
<path fill-rule="evenodd" clip-rule="evenodd" d="M88 165C92.4183 165 96 161.418 96 157C96 152.582 92.4183 149 88 149C83.5817 149 80 152.582 80 157C80 161.418 83.5817 165 88 165ZM88 177C99.0457 177 108 168.046 108 157C108 145.954 99.0457 137 88 137C76.9543 137 68 145.954 68 157C68 168.046 76.9543 177 88 177Z" fill="#89969F"/>
<path fill-rule="evenodd" clip-rule="evenodd" d="M27 211C31.4183 211 35 207.418 35 203C35 198.582 31.4183 195 27 195C22.5817 195 19 198.582 19 203C19 207.418 22.5817 211 27 211ZM27 223C38.0457 223 47 214.046 47 203C47 191.954 38.0457 183 27 183C15.9543 183 7 191.954 7 203C7 214.046 15.9543 223 27 223Z" fill="#89969F"/>
<rect x="199" y="29" width="15" height="82" transform="rotate(90 199 29)" fill="#89969F"/>
<rect x="117" y="196" width="15" height="82" transform="rotate(90 117 196)" fill="#89969F"/>
<path fill-rule="evenodd" clip-rule="evenodd" d="M121 195.994V196H120H69.9317C84.2942 205.481 101.503 211 120 211C170.258 211 211 170.258 211 120C211 98.8806 203.806 79.4416 191.734 64H171.382C186.514 77.8921 196 97.8383 196 120C196 161.64 162.513 195.458 121 195.994ZM121 44.0064C120.667 44.0022 120.334 44 120 44C78.0264 44 44 78.0264 44 120C44 142.162 53.4857 162.108 68.6184 176H48.2662C36.1944 160.558 29 141.119 29 120C29 69.7421 69.7421 29 120 29C138.497 29 155.706 34.5189 170.068 44H121V44.0064Z" fill="#89969F"/>
<rect x="120" y="74" width="15" height="73" transform="rotate(90 120 74)" fill="#89969F"/>
<rect x="196" y="149" width="15" height="91" transform="rotate(90 196 149)" fill="#89969F"/>
<rect x="199" y="116" width="15" height="62" transform="rotate(90 199 116)" fill="#89969F"/>
<rect x="102" y="105" width="15" height="64" transform="rotate(90 102 105)" fill="#89969F"/>
<rect x="102" y="116" width="15" height="39" transform="rotate(-180 102 116)" fill="#89969F"/>
<rect x="152" y="159" width="15" height="39" transform="rotate(-180 152 159)" fill="#89969F"/>
</svg>
